<?xml version="1.0" encoding="utf-8"?>
<!-- Generator: Adobe Illustrator 16.0.0, SVG Export Plug-In . SVG Version: 6.00 Build 0)  -->
<!DOCTYPE svg PUBLIC "-//W3C//DTD SVG 1.1//EN" "http://www.w3.org/Graphics/SVG/1.1/DTD/svg11.dtd">
<svg version="1.1" id="Layer_1" xmlns="http://www.w3.org/2000/svg" xmlns:xlink="http://www.w3.org/1999/xlink" x="0px" y="0px"
	 width="100px" height="56px" viewBox="0 0 100 56" enable-background="new 0 0 100 56" xml:space="preserve">
<g>
	<g>
		<path fill="#1D1D1B" d="M99.5,0H36.355c-0.276,0-0.5,0.264-0.5,0.59v3.214H34.84V0.625H21.633v3.179H19.59V2.612h-1.337V1.345
			h-5.2v1.268h-1.337v1.191h-1.15V0.75h-9.4v3.054H0.09v10.859h64.785v2.704H100V0.59C100,0.264,99.777,0,99.5,0z M25.188,11.438
			c-0.338,0-0.616-0.276-0.616-0.616c0-0.339,0.278-0.615,0.616-0.615c0.343,0,0.618,0.276,0.618,0.615
			C25.806,11.162,25.531,11.438,25.188,11.438z M63.821,4.739c0.341,0,0.616,0.276,0.616,0.616c0,0.34-0.275,0.616-0.616,0.616
			s-0.616-0.276-0.616-0.616C63.205,5.015,63.48,4.739,63.821,4.739z M54.816,9.591H41.335V4.673h13.481V9.591z M63.821,9.524
			c-0.341,0-0.616-0.278-0.616-0.618c0-0.339,0.275-0.614,0.616-0.614c0.339,0,0.617,0.275,0.617,0.614
			C64.438,9.246,64.161,9.524,63.821,9.524z M93.5,14.841H74.125V2.045H93.5V14.841z M0,56h100v-1.25H0V56z"/>
	</g>
</g>
<path fill="#1D1D1B" d="M61.125,19.027v-2.815H36.264c0.656,0.328,1.111,0.999,1.111,1.781c0,1.104-0.896,1.998-2,1.998
	s-2-0.895-2-1.998c0-0.782,0.455-1.453,1.111-1.781H0.09v36.965h61.035H100v-34.15H61.125z"/>
<path fill="none" stroke="#FFFFFF" stroke-miterlimit="10" d="M39.707,37.086"/>
<path fill="none" d="M59.521,23.17c5.973,0,10.886,4.535,11.477,10.347C70.406,27.705,65.493,23.169,59.521,23.17
	c-5.974-0.001-10.886,4.535-11.477,10.347C48.635,27.705,53.547,23.17,59.521,23.17z"/>
<g>
	<path fill="#FFFFFF" d="M29.456,14.241l0.81-3.245c0.066-0.268-0.096-0.54-0.365-0.606l-2.19-0.546
		c-0.268-0.066-0.54,0.097-0.606,0.365l-1.406,5.629c-0.316,0.523-0.508,1.13-0.508,1.786c0,1.921,1.559,3.479,3.482,3.479
		c1.922,0,3.481-1.558,3.481-3.479C32.154,15.973,31,14.597,29.456,14.241z M28.672,20.406c-1.539,0-2.785-1.246-2.785-2.782
		c0-1.537,1.246-2.783,2.785-2.783c1.538,0,2.785,1.246,2.785,2.783C31.457,19.16,30.21,20.406,28.672,20.406z"/>
	<circle fill="#1D1D1B" cx="28.672" cy="17.623" r="2.782"/>
</g>
<g>
	<circle fill="#1D1D1B" stroke="#FFFFFF" stroke-width="2.3" stroke-miterlimit="10" cx="61.068" cy="34.693" r="19.784"/>
	<circle fill="#1D1D1B" stroke="#FFFFFF" stroke-width="1.1" stroke-miterlimit="10" cx="61.068" cy="34.693" r="11.417"/>
</g>
</svg>
