<svg xmlns="http://www.w3.org/2000/svg" xmlns:xlink="http://www.w3.org/1999/xlink" version="1.1" x="0px" y="0px" width="100px" height="56px" viewBox="0 0 100 56" enable-background="new 0 0 100 56" xml:space="preserve"><style>.style0{fill:	#1D1D1B;}.style1{fill:	#FFFFFF;}.style2{stroke:	#FFFFFF;stroke-miterlimit:	10;fill:	none;}</style><rect x="0.1" y="3.3" width="99.9" height="52.7" class="style0"/><rect x="0.1" y="53.8" width="99.9" height="1.2" class="style1"/><path d="M39.707 37.1" class="style2"/><g><g><path d="M35.854 4.681c0 0.3 0.2 0.5 0.5 0.5h63.144c0.277 0 0.5-0.224 0.5-0.5v-4.18 c0-0.276-0.223-0.5-0.5-0.5H36.355c-0.276 0-0.5 0.224-0.5 0.5V4.681z" class="style0"/></g><rect x="21.6" y="0.6" width="13.2" height="4" class="style0"/><rect x="11.9" y="2.5" width="8.3" height="2.6" class="style0"/><rect x="13.7" y="0.9" width="4.7" height="1.2" class="style0"/><rect x="1.3" y="1.4" width="9.6" height="3.2" class="style0"/></g><rect x="0.1" y="14.1" width="57.8" height="1.2" class="style1"/><g><circle cx="63.7" cy="5.5" r="0.6" class="style1"/><path d="M63.731 8.431c-0.341 0-0.616 0.275-0.616 0.614c0 0.3 0.3 0.6 0.6 0.6 c0.34 0 0.617-0.278 0.617-0.618C64.349 8.7 64.1 8.4 63.7 8.431z" class="style1"/><g><path d="M74.247 14.83c0 0.3 0.2 0.5 0.5 0.5h18.677c0.276 0 0.5-0.224 0.5-0.5V2.397 c0-0.276-0.224-0.5-0.5-0.5H74.748c-0.277 0-0.501 0.224-0.501 0.5V14.83z" class="style1"/></g><rect x="41.3" y="4.7" width="13.5" height="4.9" class="style1"/></g><g><path d="M59.521 13.864c-11.516 0-20.851 9.328-20.851 20.832c0 11.5 9.3 20.8 20.9 20.8 c11.515 0 20.852-9.326 20.852-20.832C80.372 23.2 71 13.9 59.5 13.864z M59.521 53.2 c-10.217 0-18.5-8.273-18.5-18.484c0-10.207 8.282-18.481 18.5-18.481c10.217 0 18.5 8.3 18.5 18.5 C78.022 44.9 69.7 53.2 59.5 53.178z" class="style1"/><path d="M59.521 16.212c-10.217 0-18.5 8.275-18.5 18.481c0 10.2 8.3 18.5 18.5 18.5 c10.217 0 18.502-8.273 18.502-18.484C78.022 24.5 69.7 16.2 59.5 16.212z M59.521 46.2 c-6.372 0-11.536-5.16-11.536-11.525s5.164-11.526 11.536-11.526c6.371 0 11.5 5.2 11.5 11.526S65.892 46.2 59.5 46.221z " class="style0"/><path d="M59.521 23.17c-6.372 0-11.536 5.16-11.536 11.525s5.164 11.5 11.5 11.5 c6.371 0 11.536-5.162 11.536-11.527S65.892 23.2 59.5 23.17z M59.522 45.045c-5.723 0-10.361-4.633-10.361-10.35 c0-5.716 4.639-10.35 10.361-10.35c5.72 0 10.4 4.6 10.4 10.35C69.881 40.4 65.2 45 59.5 45.045z" class="style1"/><path d="M59.522 24.346c-5.723 0-10.361 4.634-10.361 10.35c0 5.7 4.6 10.3 10.4 10.3 c5.72 0 10.358-4.633 10.358-10.35C69.881 29 65.2 24.3 59.5 24.346z" class="style0"/></g><rect x="69.9" y="17.3" width="30.1" height="1.2" class="style1"/><path d="M25.806 10.822c0 0.34-0.274 0.616-0.618 0.616c-0.338 0-0.616-0.276-0.616-0.616 c0-0.339 0.278-0.615 0.616-0.615C25.532 10.2 25.8 10.5 25.8 10.822z" class="style1"/><g><circle cx="28.7" cy="17.6" r="3.5" class="style1"/><g><path d="M25.446 16.85c-0.067 0.3 0.1 0.5 0.4 0.606l2.191 0.545c0.268 0.1 0.54-0.096 0.606-0.364 l1.658-6.641c0.066-0.268-0.096-0.54-0.365-0.606l-2.19-0.546c-0.268-0.066-0.54 0.097-0.606 0.365L25.446 16.85z" class="style1"/></g></g><g><circle cx="28.7" cy="17.6" r="2.8" class="style0"/></g><circle cx="35.4" cy="18" r="2" class="style1"/></svg>