<?xml version="1.0" standalone="no"?>
<!DOCTYPE svg PUBLIC "-//W3C//DTD SVG 1.1//EN" "http://www.w3.org/Graphics/SVG/1.1/DTD/svg11.dtd" >
<svg xmlns="http://www.w3.org/2000/svg">
<metadata>Generated by IcoMoon</metadata>
<defs>
<font id="greenandonely" horiz-adv-x="1024">
<font-face units-per-em="1024" ascent="960" descent="-64" />
<missing-glyph horiz-adv-x="1024" />
<glyph unicode="&#x20;" d="M-1.458 798.35h1417.004v-747.509h-1417.004v747.509z" horiz-adv-x="1429" />
<glyph unicode="&#x20;" d="" horiz-adv-x="512" />
<glyph unicode="&#x21;" d="M-1.458 82.048h1417.004v-17.021h-1417.004v17.021z" horiz-adv-x="1429" />
<glyph unicode="&#x22;" d="M505.683 778.762c0-4.256 2.836-7.091 7.091-7.091h895.649c3.929 0 7.091 3.178 7.091 7.091v59.288c0 3.915-3.164 7.091-7.091 7.091h-895.635c-3.915 0-7.091-3.178-7.091-7.091v-59.288z" horiz-adv-x="1429" />
<glyph unicode="&#x23;" d="M303.5 836.648h187.23v-56.738h-187.23v56.738z" horiz-adv-x="1429" />
<glyph unicode="&#x24;" d="M165.915 809.697h117.728v-36.878h-117.728v36.878z" horiz-adv-x="1429" />
<glyph unicode="&#x25;" d="M191.447 832.391h66.666v-17.021h-66.666v17.021z" horiz-adv-x="1429" />
<glyph unicode="&#x26;" d="M15.56 825.3h136.169v-45.39h-136.168v45.39z" horiz-adv-x="1429" />
<glyph unicode="&#x27;" d="M-1.458 645.16h819.847v-17.021h-819.847v17.021z" horiz-adv-x="1429" />
<glyph unicode="&#x28;" d="M909.167 767.146c0-4.699-3.809-8.509-8.51-8.509s-8.51 3.81-8.51 8.509c0 4.699 3.809 8.51 8.51 8.51s8.51-3.809 8.51-8.51z" horiz-adv-x="1429" />
<glyph unicode="&#x29;" d="M901.097 725.571c-4.836 0-8.738-3.901-8.738-8.709 0-4.256 4.256-8.51 8.51-8.51 4.822 0 8.751 3.943 8.751 8.767 0.241 4.638-3.29 8.893-8.965 8.452z" horiz-adv-x="1429" />
<glyph unicode="&#x2a;" d="M1050.257 634.806c0-4.256 2.837-7.091 7.091-7.091h264.918c3.915 0 7.091 3.178 7.091 7.091v176.352c0 3.915-3.178 7.091-7.091 7.091h-264.906c-3.929 0-7.107-3.178-7.107-7.091v-176.352z" horiz-adv-x="1429" />
<glyph unicode="&#x2b;" d="M582.931 778.493h191.488v-69.502h-191.488v69.502z" horiz-adv-x="1429" />
<glyph unicode="&#x2c;" d="M841.382 648.508c-163.344 0-295.755-132.31-295.755-295.486 0-163.119 131.914-295.033 296.449-295.033 163.332 0 295.771 132.282 295.771 295.485-0.708 162.607-133.643 294.522-296.762 295.033zM841.382 90.557c-144.92 0-262.408 117.346-262.408 262.182 0 144.778 117.473 262.138 262.408 262.138 144.92 0 262.408-117.728 262.408-262.408 0.015-144.182-118.027-261.912-262.707-261.6z" horiz-adv-x="1429" />
<glyph unicode="&#x2d;" d="M841.382 615.202c-144.92 0-262.408-117.374-262.408-262.138 0-144.679 117.728-262.408 262.408-262.408 144.92 0 262.435 117.346 262.435 262.182-0.015 144.807-118.056 262.535-262.734 262.368zM841.382 189.847c-90.382 0-163.63 73.19-163.63 163.474s73.246 163.487 163.63 163.487c90.367 0 163.119-73.759 163.119-163.487s-72.75-163.474-163.417-163.771z" horiz-adv-x="1429" />
<glyph unicode="&#x2e;" d="M841.382 516.51c-90.382 0-163.63-73.19-163.63-163.474s73.246-163.119 163.119-163.119c90.367 0 163.63 73.218 163.63 163.502s-72.75 162.665-163.417 163.090zM841.396 206.23c-81.177 0-146.962 65.715-146.962 146.807 0 81.077 65.799 146.808 146.962 146.808 81.133 0 147.515-65.246 147.515-146.808-0.582-80.922-66.978-146.168-147.829-146.807z" horiz-adv-x="1429" />
<glyph unicode="&#x2f;" d="M841.396 499.828c-81.177 0-146.962-65.731-146.962-146.807 0-80.851 65.246-146.096 147.515-146.096 81.133 0 146.92 65.715 146.92 146.807-0.539 80.084-66.934 146.75-147.785 146.096z" horiz-adv-x="1429" />
<glyph unicode="&#x30;" d="M988.598 599.771h426.945v-17.021h-426.945v17.021z" horiz-adv-x="1429" />
<glyph unicode="&#x31;" d="M363.161 691.658c0-4.822-3.886-8.738-8.767-8.738-4.794 0-8.738 3.915-8.738 8.738 0 4.808 3.943 8.724 8.738 8.724 4.88 0.099 8.681-4.157 8.681-8.724z" horiz-adv-x="1429" />
<glyph unicode="&#x32;" d="M453.854 595.515c0-27.418-22.228-49.646-49.646-49.646s-49.647 22.228-49.647 49.646c0 27.418 22.228 49.646 49.647 49.646s49.646-22.228 49.646-49.646z" horiz-adv-x="1429" />
<glyph unicode="&#x33;" d="M358.054 606.155c-0.949-4.256 1.419-7.091 5.673-8.597l31.078-7.732c3.801-1.419 7.659 1.362 8.597 5.163l23.519 94.197c0.937 3.801-1.362 7.659-5.176 8.597l-31.065 7.744c-3.801 0.937-7.659-1.377-8.597-5.176l-24.028-94.197z" horiz-adv-x="1429" />
<glyph unicode="&#x34;" d="M443.925 595.515c0-21.935-17.782-39.716-39.716-39.716s-39.716 17.782-39.716 39.716c0 21.935 17.782 39.716 39.716 39.716s39.716-17.782 39.716-39.716z" horiz-adv-x="1429" />
<glyph unicode="&#x35;" d="M527.613 589.842c0-15.668-12.7-28.367-28.367-28.367s-28.367 12.7-28.367 28.367c0 15.668 12.7 28.367 28.367 28.367s28.367-12.7 28.367-28.367z" horiz-adv-x="1429" />
<glyph unicode="&#x3c;" d="M1024 502.857v-109.714q0-8-5.143-13.143t-13.143-5.143h-713.143v-128q0-12-10.857-16.571t-20 2.857l-219.429 200q-5.714 5.714-5.714 13.143 0 8 5.714 13.714l219.429 202.286q9.143 8 20 3.429 10.857-5.143 10.857-16.571v-128h713.143q8 0 13.143-5.143t5.143-13.143z" />
<glyph unicode="&#x3e;" d="M987.429 449.714q0-8-5.714-13.714l-219.429-202.286q-9.143-8-20-3.429-10.857 5.143-10.857 16.571v128h-713.143q-8 0-13.143 5.143t-5.143 13.143v109.714q0 8 5.143 13.143t13.143 5.143h713.143v128q0 12 10.857 16.571t20-2.857l219.429-200q5.714-5.714 5.714-13.143z" />
</font>
</defs>
</svg>
