<?xml version="1.0" encoding="utf-8"?>
<!-- Generator: Adobe Illustrator 18.0.0, SVG Export Plug-In . SVG Version: 6.00 Build 0)  -->
<!DOCTYPE svg PUBLIC "-//W3C//DTD SVG 1.1//EN" "http://www.w3.org/Graphics/SVG/1.1/DTD/svg11.dtd">
<svg version="1.1" xmlns="http://www.w3.org/2000/svg" xmlns:xlink="http://www.w3.org/1999/xlink" x="0px" y="0px"
	 viewBox="0 0 2767.7 2767.7" enable-background="new 0 0 2767.7 2767.7" xml:space="preserve">
<g id="Layer_1">
	<circle fill="#662D91" stroke="#000000" stroke-miterlimit="10" cx="1383.8" cy="1383.8" r="1383.3"/>
</g>
<g id="Layer_2" display="none">
	<polygon display="inline" fill="#FFFFFF" stroke="#000000" stroke-miterlimit="10" points="852.9,652.5 588.9,761.8 588.9,1827.2 
		852.9,1827.2 	"/>
	<polygon display="inline" fill="#FFFFFF" stroke="#000000" stroke-miterlimit="10" points="859.8,659.4 588.9,761.8 1750.4,1923.4 
		1937.1,1736.7 	"/>
	<circle display="inline" fill="#FFFFFF" stroke="#000000" stroke-miterlimit="10" cx="720.9" cy="1827.2" r="132"/>
	<circle display="inline" fill="#FFFFFF" stroke="#000000" stroke-miterlimit="10" cx="743.8" cy="762.1" r="154.9"/>
	<circle display="inline" fill="#FFFFFF" stroke="#000000" stroke-miterlimit="10" cx="1841.2" cy="1827.2" r="132"/>
</g>
<g id="Layer_2_copy">
	<g>
		<path opacity="0.6" fill="#FFFFFF" stroke="#000000" stroke-miterlimit="10" d="M2120,1889.7L905,674.7l-0.1,0
			c-32.3-36.4-79.4-59.4-131.9-59.4c-97.1,0-175.9,78.7-176.1,175.8l0,0v1211.1c0,82.9,67.2,150.1,150.1,150.1
			S897,2085.1,897,2002.2v-911l1020.4,1020.4l0.3-0.3c26.9,25.4,63.1,41,103,41c82.9,0,150.1-67.2,150.1-150.1
			C2170.8,1957.4,2151.1,1917.2,2120,1889.7z"/>
		<path opacity="0.6" fill="#FFFFFF" stroke="#000000" stroke-miterlimit="10" d="M647.7,1889.7l1215-1215l0.1,0
			c32.3-36.4,79.4-59.4,131.9-59.4c97.1,0,175.9,78.7,176.1,175.8l0,0v1211.1c0,82.9-67.2,150.1-150.1,150.1
			s-150.1-67.2-150.1-150.1v-911L850.3,2111.6l-0.3-0.3c-26.9,25.4-63.1,41-103,41c-82.9,0-150.1-67.2-150.1-150.1
			C596.9,1957.4,616.6,1917.2,647.7,1889.7z"/>
	</g>
</g>
</svg>
